{
    "asset" : {
        "generator" : "Khronos glTF Blender I/O v1.8.19",
        "version" : "2.0"
    },
    "scene" : 0,
    "scenes" : [
        {
            "name" : "Scene",
            "nodes" : [
                0
            ]
        }
    ],
    "nodes" : [
        {
            "mesh" : 0,
            "name" : "Plane",
            "scale" : [
                25,
                25,
                25
            ]
        }
    ],
    "materials" : [
        {
            "doubleSided" : true,
            "name" : "Track",
            "pbrMetallicRoughness" : {
                "baseColorFactor" : [
                    0.031063375994563103,
                    0.029979266226291656,
                    0.030789315700531006,
                    1
                ],
                "metallicFactor" : 0,
                "roughnessFactor" : 0.5
            }
        },
        {
            "doubleSided" : true,
            "name" : "Grass",
            "pbrMetallicRoughness" : {
                "baseColorFactor" : [
                    0.0026238204445689917,
                    0.07657942175865173,
                    0.003565387101843953,
                    1
                ],
                "metallicFactor" : 0,
                "roughnessFactor" : 0.4000000059604645
            }
        },
        {
            "doubleSided" : true,
            "name" : "dirt",
            "pbrMetallicRoughness" : {
                "baseColorFactor" : [
                    0.15743228793144226,
                    0.07070199400186539,
                    0.03250550851225853,
                    1
                ],
                "metallicFactor" : 0,
                "roughnessFactor" : 0.5
            }
        }
    ],
    "meshes" : [
        {
            "name" : "Plane",
            "primitives" : [
                {
                    "attributes" : {
                        "POSITION" : 0,
                        "NORMAL" : 1,
                        "TEXCOORD_0" : 2
                    },
                    "indices" : 3,
                    "material" : 0
                },
                {
                    "attributes" : {
                        "POSITION" : 4,
                        "NORMAL" : 5,
                        "TEXCOORD_0" : 6
                    },
                    "indices" : 7,
                    "material" : 1
                },
                {
                    "attributes" : {
                        "POSITION" : 8,
                        "NORMAL" : 9,
                        "TEXCOORD_0" : 10
                    },
                    "indices" : 11,
                    "material" : 2
                }
            ]
        }
    ],
    "accessors" : [
        {
            "bufferView" : 0,
            "componentType" : 5126,
            "count" : 184,
            "max" : [
                1,
                0.10660584270954132,
                1
            ],
            "min" : [
                -1,
                0,
                -1
            ],
            "type" : "VEC3"
        },
        {
            "bufferView" : 1,
            "componentType" : 5126,
            "count" : 184,
            "type" : "VEC3"
        },
        {
            "bufferView" : 2,
            "componentType" : 5126,
            "count" : 184,
            "type" : "VEC2"
        },
        {
            "bufferView" : 3,
            "componentType" : 5123,
            "count" : 462,
            "type" : "SCALAR"
        },
        {
            "bufferView" : 4,
            "componentType" : 5126,
            "count" : 168,
            "max" : [
                1,
                0.10660584270954132,
                1
            ],
            "min" : [
                -1,
                0.05414840206503868,
                -1
            ],
            "type" : "VEC3"
        },
        {
            "bufferView" : 5,
            "componentType" : 5126,
            "count" : 168,
            "type" : "VEC3"
        },
        {
            "bufferView" : 6,
            "componentType" : 5126,
            "count" : 168,
            "type" : "VEC2"
        },
        {
            "bufferView" : 7,
            "componentType" : 5123,
            "count" : 444,
            "type" : "SCALAR"
        },
        {
            "bufferView" : 8,
            "componentType" : 5126,
            "count" : 484,
            "max" : [
                0.9393994808197021,
                0.10660584270954132,
                0.9033430814743042
            ],
            "min" : [
                -0.8428481817245483,
                0.01516279298812151,
                -0.8857642412185669
            ],
            "type" : "VEC3"
        },
        {
            "bufferView" : 9,
            "componentType" : 5126,
            "count" : 484,
            "type" : "VEC3"
        },
        {
            "bufferView" : 10,
            "componentType" : 5126,
            "count" : 484,
            "type" : "VEC2"
        },
        {
            "bufferView" : 11,
            "componentType" : 5123,
            "count" : 726,
            "type" : "SCALAR"
        }
    ],
    "bufferViews" : [
        {
            "buffer" : 0,
            "byteLength" : 2208,
            "byteOffset" : 0
        },
        {
            "buffer" : 0,
            "byteLength" : 2208,
            "byteOffset" : 2208
        },
        {
            "buffer" : 0,
            "byteLength" : 1472,
            "byteOffset" : 4416
        },
        {
            "buffer" : 0,
            "byteLength" : 924,
            "byteOffset" : 5888
        },
        {
            "buffer" : 0,
            "byteLength" : 2016,
            "byteOffset" : 6812
        },
        {
            "buffer" : 0,
            "byteLength" : 2016,
            "byteOffset" : 8828
        },
        {
            "buffer" : 0,
            "byteLength" : 1344,
            "byteOffset" : 10844
        },
        {
            "buffer" : 0,
            "byteLength" : 888,
            "byteOffset" : 12188
        },
        {
            "buffer" : 0,
            "byteLength" : 5808,
            "byteOffset" : 13076
        },
        {
            "buffer" : 0,
            "byteLength" : 5808,
            "byteOffset" : 18884
        },
        {
            "buffer" : 0,
            "byteLength" : 3872,
            "byteOffset" : 24692
        },
        {
            "buffer" : 0,
            "byteLength" : 1452,
            "byteOffset" : 28564
        }
    ],
    "buffers" : [
        {
            "byteLength" : 30016,
            "uri" : "data:application/octet-stream;base64,"
        }
    ]
}
