{
    "asset" : {
        "generator" : "Khronos glTF Blender I/O v1.8.19",
        "version" : "2.0"
    },
    "scene" : 0,
    "scenes" : [
        {
            "name" : "Scene",
            "nodes" : [
                0,
                1,
                2,
                3
            ]
        }
    ],
    "nodes" : [
        {
            "name" : "Empty"
        },
        {
            "name" : "BezierCurve",
            "scale" : [
                23.406993865966797,
                23.406993865966797,
                23.406993865966797
            ],
            "translation" : [
                0.03580355644226074,
                0.0011393410386517644,
                -0.10317611694335938
            ]
        },
        {
            "mesh" : 0,
            "name" : "Cube",
            "scale" : [
                -0.20383787155151367,
                0.03479677438735962,
                1
            ]
        },
        {
            "mesh" : 1,
            "name" : "Finish/start_line",
            "rotation" : [
                -0.0017300406470894814,
                0.3722080886363983,
                0.0006937852595001459,
                0.9281474351882935
            ],
            "scale" : [
                0.05230055749416351,
                0.004864143673330545,
                1
            ],
            "translation" : [
                16.612150192260742,
                0.003000000026077032,
                5.9979567527771
            ]
        }
    ],
    "materials" : [
        {
            "doubleSided" : true,
            "name" : "White",
            "pbrMetallicRoughness" : {
                "metallicFactor" : 0,
                "roughnessFactor" : 0.5
            }
        },
        {
            "doubleSided" : true,
            "name" : "red",
            "pbrMetallicRoughness" : {
                "baseColorFactor" : [
                    0.8000000715255737,
                    0.013294024392962456,
                    0.023366570472717285,
                    1
                ],
                "metallicFactor" : 0,
                "roughnessFactor" : 0.5
            }
        },
        {
            "doubleSided" : true,
            "name" : "Ashfelt",
            "pbrMetallicRoughness" : {
                "baseColorFactor" : [
                    0.15232433378696442,
                    0.15232433378696442,
                    0.15232433378696442,
                    1
                ],
                "metallicFactor" : 0,
                "roughnessFactor" : 0.5
            }
        }
    ],
    "meshes" : [
        {
            "name" : "Cube.001",
            "primitives" : [
                {
                    "attributes" : {
                        "POSITION" : 0,
                        "NORMAL" : 1,
                        "TEXCOORD_0" : 2
                    },
                    "indices" : 3,
                    "material" : 0
                },
                {
                    "attributes" : {
                        "POSITION" : 4,
                        "NORMAL" : 5,
                        "TEXCOORD_0" : 6
                    },
                    "indices" : 7,
                    "material" : 1
                },
                {
                    "attributes" : {
                        "POSITION" : 8,
                        "NORMAL" : 9,
                        "TEXCOORD_0" : 10
                    },
                    "indices" : 11,
                    "material" : 2
                }
            ]
        },
        {
            "name" : "Cube",
            "primitives" : [
                {
                    "attributes" : {
                        "POSITION" : 12,
                        "NORMAL" : 13,
                        "TEXCOORD_0" : 14
                    },
                    "indices" : 15,
                    "material" : 0
                }
            ]
        }
    ],
    "accessors" : [
        {
            "bufferView" : 0,
            "componentType" : 5126,
            "count" : 56,
            "max" : [
                1,
                1.8809744119644165,
                1
            ],
            "min" : [
                -1,
                -1,
                -1
            ],
            "type" : "VEC3"
        },
        {
            "bufferView" : 1,
            "componentType" : 5126,
            "count" : 56,
            "type" : "VEC3"
        },
        {
            "bufferView" : 2,
            "componentType" : 5126,
            "count" : 56,
            "type" : "VEC2"
        },
        {
            "bufferView" : 3,
            "componentType" : 5123,
            "count" : 108,
            "type" : "SCALAR"
        },
        {
            "bufferView" : 4,
            "componentType" : 5126,
            "count" : 32,
            "max" : [
                0,
                1.8809744119644165,
                1
            ],
            "min" : [
                -1,
                -1,
                -1
            ],
            "type" : "VEC3"
        },
        {
            "bufferView" : 5,
            "componentType" : 5126,
            "count" : 32,
            "type" : "VEC3"
        },
        {
            "bufferView" : 6,
            "componentType" : 5126,
            "count" : 32,
            "type" : "VEC2"
        },
        {
            "bufferView" : 7,
            "componentType" : 5123,
            "count" : 48,
            "type" : "SCALAR"
        },
        {
            "bufferView" : 8,
            "componentType" : 5126,
            "count" : 26,
            "max" : [
                1,
                1,
                1
            ],
            "min" : [
                -1,
                -1,
                -1
            ],
            "type" : "VEC3"
        },
        {
            "bufferView" : 9,
            "componentType" : 5126,
            "count" : 26,
            "type" : "VEC3"
        },
        {
            "bufferView" : 10,
            "componentType" : 5126,
            "count" : 26,
            "type" : "VEC2"
        },
        {
            "bufferView" : 11,
            "componentType" : 5123,
            "count" : 48,
            "type" : "SCALAR"
        },
        {
            "bufferView" : 12,
            "componentType" : 5126,
            "count" : 24,
            "max" : [
                1,
                1,
                1
            ],
            "min" : [
                -1,
                -1,
                -1
            ],
            "type" : "VEC3"
        },
        {
            "bufferView" : 13,
            "componentType" : 5126,
            "count" : 24,
            "type" : "VEC3"
        },
        {
            "bufferView" : 14,
            "componentType" : 5126,
            "count" : 24,
            "type" : "VEC2"
        },
        {
            "bufferView" : 15,
            "componentType" : 5123,
            "count" : 36,
            "type" : "SCALAR"
        }
    ],
    "bufferViews" : [
        {
            "buffer" : 0,
            "byteLength" : 672,
            "byteOffset" : 0
        },
        {
            "buffer" : 0,
            "byteLength" : 672,
            "byteOffset" : 672
        },
        {
            "buffer" : 0,
            "byteLength" : 448,
            "byteOffset" : 1344
        },
        {
            "buffer" : 0,
            "byteLength" : 216,
            "byteOffset" : 1792
        },
        {
            "buffer" : 0,
            "byteLength" : 384,
            "byteOffset" : 2008
        },
        {
            "buffer" : 0,
            "byteLength" : 384,
            "byteOffset" : 2392
        },
        {
            "buffer" : 0,
            "byteLength" : 256,
            "byteOffset" : 2776
        },
        {
            "buffer" : 0,
            "byteLength" : 96,
            "byteOffset" : 3032
        },
        {
            "buffer" : 0,
            "byteLength" : 312,
            "byteOffset" : 3128
        },
        {
            "buffer" : 0,
            "byteLength" : 312,
            "byteOffset" : 3440
        },
        {
            "buffer" : 0,
            "byteLength" : 208,
            "byteOffset" : 3752
        },
        {
            "buffer" : 0,
            "byteLength" : 96,
            "byteOffset" : 3960
        },
        {
            "buffer" : 0,
            "byteLength" : 288,
            "byteOffset" : 4056
        },
        {
            "buffer" : 0,
            "byteLength" : 288,
            "byteOffset" : 4344
        },
        {
            "buffer" : 0,
            "byteLength" : 192,
            "byteOffset" : 4632
        },
        {
            "buffer" : 0,
            "byteLength" : 72,
            "byteOffset" : 4824
        }
    ],
    "buffers" : [
        {
            "byteLength" : 4896,
            "uri" : "data:application/octet-stream;base64,"
        }
    ]
}
