{
    "asset" : {
        "generator" : "Khronos glTF Blender I/O v1.8.19",
        "version" : "2.0"
    },
    "scene" : 0,
    "scenes" : [
        {
            "name" : "Scene",
            "nodes" : [
                0,
                1,
                2
            ]
        }
    ],
    "nodes" : [
        {
            "mesh" : 0,
            "name" : "Cube",
            "scale" : [
                -0.17568552494049072,
                0.01627914048731327,
                1
            ]
        },
        {
            "name" : "BezierCurve",
            "scale" : [
                4.603362560272217,
                4.603362560272217,
                4.603362560272217
            ]
        },
        {
            "mesh" : 1,
            "name" : "Cube.001",
            "translation" : [
                3.110311508178711,
                -0.004046245478093624,
                0.008421461097896099
            ]
        }
    ],
    "meshes" : [
        {
            "name" : "Cube.001",
            "primitives" : [
                {
                    "attributes" : {
                        "POSITION" : 0,
                        "NORMAL" : 1,
                        "TEXCOORD_0" : 2
                    },
                    "indices" : 3
                }
            ]
        },
        {
            "name" : "Cube.002",
            "primitives" : [
                {
                    "attributes" : {
                        "POSITION" : 4,
                        "NORMAL" : 5,
                        "TEXCOORD_0" : 6
                    },
                    "indices" : 7
                }
            ]
        }
    ],
    "accessors" : [
        {
            "bufferView" : 0,
            "componentType" : 5126,
            "count" : 44,
            "max" : [
                0.1806202530860901,
                8.312261581420898,
                1
            ],
            "min" : [
                -0.1806202530860901,
                -1,
                -1
            ],
            "type" : "VEC3"
        },
        {
            "bufferView" : 1,
            "componentType" : 5126,
            "count" : 44,
            "type" : "VEC3"
        },
        {
            "bufferView" : 2,
            "componentType" : 5126,
            "count" : 44,
            "type" : "VEC2"
        },
        {
            "bufferView" : 3,
            "componentType" : 5123,
            "count" : 84,
            "type" : "SCALAR"
        },
        {
            "bufferView" : 4,
            "componentType" : 5126,
            "count" : 44,
            "max" : [
                1,
                0.5514768958091736,
                1
            ],
            "min" : [
                -7.5157694816589355,
                -0.031514108180999756,
                -1
            ],
            "type" : "VEC3"
        },
        {
            "bufferView" : 5,
            "componentType" : 5126,
            "count" : 44,
            "type" : "VEC3"
        },
        {
            "bufferView" : 6,
            "componentType" : 5126,
            "count" : 44,
            "type" : "VEC2"
        },
        {
            "bufferView" : 7,
            "componentType" : 5123,
            "count" : 84,
            "type" : "SCALAR"
        }
    ],
    "bufferViews" : [
        {
            "buffer" : 0,
            "byteLength" : 528,
            "byteOffset" : 0
        },
        {
            "buffer" : 0,
            "byteLength" : 528,
            "byteOffset" : 528
        },
        {
            "buffer" : 0,
            "byteLength" : 352,
            "byteOffset" : 1056
        },
        {
            "buffer" : 0,
            "byteLength" : 168,
            "byteOffset" : 1408
        },
        {
            "buffer" : 0,
            "byteLength" : 528,
            "byteOffset" : 1576
        },
        {
            "buffer" : 0,
            "byteLength" : 528,
            "byteOffset" : 2104
        },
        {
            "buffer" : 0,
            "byteLength" : 352,
            "byteOffset" : 2632
        },
        {
            "buffer" : 0,
            "byteLength" : 168,
            "byteOffset" : 2984
        }
    ],
    "buffers" : [
        {
            "byteLength" : 3152,
            "uri" : "data:application/octet-stream;base64,"
        }
    ]
}
